<svg width="16" height="16" viewBox="0 0 16 16" fill="none" xmlns="http://www.w3.org/2000/svg">
<path fill-rule="evenodd" clip-rule="evenodd" d="M13.7359 2.26399C13.3839 1.912 12.8133 1.912 12.4613 2.26399L7.99995 6.72533L3.53865 2.264C3.18666 1.91201 2.61598 1.91201 2.26399 2.264C1.912 2.61599 1.912 3.18668 2.26399 3.53867L6.72529 8L2.26399 12.4613C1.912 12.8133 1.912 13.384 2.26399 13.736C2.61598 14.088 3.18666 14.088 3.53865 13.736L7.99995 9.27467L12.4613 13.736C12.8133 14.088 13.3839 14.088 13.7359 13.736C14.0879 13.384 14.0879 12.8133 13.7359 12.4613L9.27461 8L13.7359 3.53866C14.0879 3.18667 14.0879 2.61598 13.7359 2.26399Z"/>
</svg>
